<svg width="49" height="49" viewBox="0 0 49 49" fill="none" xmlns="http://www.w3.org/2000/svg">
<path fill-rule="evenodd" clip-rule="evenodd" d="M23.7357 7.0603C21.7879 7.21028 19.767 7.75517 17.9455 8.62144L17.3122 8.92263L16.7875 8.56395C15.0912 7.40425 12.845 7.28014 11.0228 8.24539C9.66015 8.96729 8.56855 10.353 8.15533 11.8855C7.94965 12.6482 7.94799 14.0223 8.1518 14.776C8.36673 15.571 8.75659 16.3494 9.25126 16.9715L9.69615 17.531L9.45873 18.2214C8.77176 20.2197 8.52543 21.9029 8.58319 24.2042C8.62211 25.7554 8.72858 26.5739 9.06488 27.9072C9.6525 30.2368 10.8651 32.6171 12.4159 34.4848L12.9489 35.1266L11.4307 36.6806C9.7032 38.4488 9.6531 38.5265 9.71079 39.3455C9.73754 39.7246 9.78518 39.8805 9.95772 40.1536C10.4669 40.9592 11.4611 41.2287 12.3141 40.7924C12.4293 40.7334 13.2307 39.9715 14.0949 39.0993L15.6662 37.5133L16.4571 37.9981C19.1004 39.6181 21.953 40.4302 25 40.4302C28.047 40.4302 30.8996 39.6181 33.5429 37.9981L34.3338 37.5133L35.9051 39.0993C36.7693 39.9715 37.5707 40.7334 37.6859 40.7924C38.5389 41.2287 39.5331 40.9592 40.0423 40.1536C40.2148 39.8805 40.2625 39.7246 40.2892 39.3455C40.3469 38.5265 40.2968 38.4488 38.5693 36.6806L37.0511 35.1266L37.5841 34.4848C39.1349 32.6171 40.3475 30.2368 40.9351 27.9072C41.2714 26.5739 41.3779 25.7554 41.4168 24.2042C41.4746 21.9029 41.2282 20.2197 40.5413 18.2214L40.3039 17.531L40.7487 16.9715C41.2434 16.3494 41.6333 15.571 41.8482 14.776C42.052 14.0223 42.0503 12.6482 41.8447 11.8855C41.1883 9.45103 39.0965 7.73335 36.6431 7.6141C35.3705 7.55228 34.2306 7.86786 33.2125 8.56395L32.6878 8.92263L32.0545 8.62144C30.1702 7.72531 28.247 7.21697 26.1312 7.05597C25.1373 6.9803 24.7656 6.98098 23.7357 7.0603ZM26.0204 8.20317C29.1103 8.43267 31.7862 9.45785 34.2824 11.3684C35.1595 12.0397 36.552 13.4625 37.2182 14.368C38.6536 16.3192 39.6341 18.5506 40.0637 20.8437C40.3395 22.3161 40.3751 24.7731 40.141 26.1747C39.4812 30.1253 37.5163 33.4903 34.4145 35.982C30.0868 39.4584 24.0856 40.2556 18.9848 38.0316C14.6385 36.1366 11.3064 32.2027 10.1663 27.6205C9.84959 26.348 9.75444 25.6276 9.71471 24.2023C9.64232 21.6085 10.0192 19.6496 11.0268 17.3823C11.8097 15.6204 12.8095 14.1566 14.184 12.7599C15.7925 11.1253 17.6491 9.89991 19.694 9.12302C20.9206 8.65705 22.5192 8.3062 23.8688 8.20682C24.8728 8.1329 25.0694 8.13257 26.0204 8.20317ZM14.5385 8.8421C15.0889 8.95965 15.5843 9.15099 15.9574 9.39016L16.2317 9.56602L15.775 9.87599C14.5668 10.6961 13.1206 12.0428 12.202 13.2029C11.6624 13.8844 10.8904 15.0553 10.4941 15.7929C10.219 16.3049 10.2057 16.3182 10.0895 16.1983C9.85591 15.9572 9.48907 15.2567 9.31693 14.7231C9.07233 13.965 9.05889 12.8006 9.28606 12.0544C9.68643 10.7392 10.7068 9.59075 11.9152 9.09518C12.7543 8.75102 13.6897 8.66083 14.5385 8.8421ZM37.676 8.94641C38.407 9.17747 38.9511 9.51994 39.545 10.1229C40.1476 10.7348 40.4789 11.282 40.7139 12.0544C40.9411 12.8006 40.9277 13.965 40.6831 14.7231C40.5107 15.2575 40.144 15.9573 39.9096 16.1991C39.7922 16.3202 39.78 16.3079 39.5035 15.7938C39.1017 15.0465 38.3328 13.8783 37.798 13.2029C36.8794 12.0428 35.4332 10.6961 34.2249 9.87599L33.7683 9.56602L34.0426 9.39016C34.3925 9.16585 34.9033 8.96161 35.4125 8.8423C35.9843 8.70833 37.0825 8.75886 37.676 8.94641ZM24.0019 9.35529C21.2859 9.53589 18.7172 10.5202 16.4495 12.2493C15.651 12.8582 14.3372 14.1756 13.7697 14.9365C12.1365 17.1264 11.1605 19.6024 10.8883 22.2468C10.7806 23.2929 10.842 25.1796 11.0163 26.1747C12.223 33.069 18.1449 38.1331 25 38.1331C30.0399 38.1331 34.713 35.3788 37.2995 30.8835C38.4683 28.8522 39.0827 26.6416 39.1552 24.2061C39.2113 22.3239 39.004 20.8411 38.4495 19.157C37.7513 17.0369 36.6253 15.2041 35.0175 13.571C32.0559 10.5626 28.1759 9.07775 24.0019 9.35529ZM26.8299 10.6084C29.6208 11.0011 32.1716 12.304 34.2186 14.3825C35.9245 16.1145 37.0109 18.0422 37.6421 20.4567C37.9544 21.6515 38.0625 22.6958 38.0207 24.1141C37.9835 25.3746 37.9067 25.939 37.6163 27.0868C36.6932 30.7345 34.1448 33.8947 30.7225 35.6353C29.7287 36.1409 28.113 36.6485 26.8299 36.8584C26.136 36.972 23.8639 36.972 23.1701 36.8584C21.887 36.6485 20.2713 36.1409 19.2775 35.6353C15.8552 33.8947 13.3068 30.7345 12.3837 27.0868C12.0933 25.939 12.0165 25.3746 11.9793 24.1141C11.9375 22.6958 12.0456 21.6515 12.3579 20.4567C12.9891 18.0422 14.0755 16.1145 15.7814 14.3825C17.4939 12.6437 19.3971 11.5307 21.7245 10.9068C23.391 10.4602 25.0765 10.3616 26.8299 10.6084ZM24.5957 11.8234C24.4389 11.9929 24.4344 12.0276 24.4344 13.0791V14.1605L24.6211 14.3236C24.8597 14.5319 25.1403 14.5319 25.3789 14.3236L25.5656 14.1605V13.0791C25.5656 12.0276 25.5611 11.9929 25.4043 11.8234C25.182 11.5831 24.818 11.5831 24.5957 11.8234ZM16.6958 15.2317C16.5312 15.3873 16.4525 15.6345 16.5095 15.8167C16.5307 15.8847 16.8608 16.2568 17.243 16.6435C17.8143 17.2216 17.9733 17.3467 18.1366 17.3467C18.3964 17.3467 18.6658 17.1632 18.7183 16.9504C18.7887 16.6661 18.6269 16.4133 17.9437 15.7403C17.3793 15.1842 17.2574 15.0946 17.0645 15.0946C16.9315 15.0946 16.7817 15.1503 16.6958 15.2317ZM32.0563 15.7403C31.3731 16.4133 31.2113 16.6661 31.2817 16.9504C31.3342 17.1632 31.6036 17.3467 31.8633 17.3467C32.0266 17.3467 32.1862 17.2213 32.7587 16.643C33.1418 16.2559 33.472 15.873 33.4923 15.792C33.5784 15.4492 33.2953 15.0946 32.9355 15.0946C32.7426 15.0946 32.6207 15.1842 32.0563 15.7403ZM24.6211 16.4062L24.4344 16.5692L24.4147 19.026L24.3951 21.4829L24.082 21.6288C23.5887 21.8588 23.233 22.2123 22.9899 22.714C22.7937 23.1191 22.771 23.2262 22.7721 23.7415C22.7737 24.4332 22.9109 24.7914 23.3614 25.2804C24.0658 26.045 25.1102 26.2293 26.0471 25.7542C26.4287 25.5607 26.9512 24.9816 27.0992 24.5882L27.2139 24.283H28.4909H29.7677L29.9257 24.1123C30.1337 23.8874 30.1383 23.5247 29.9357 23.3188C29.7943 23.1751 29.7289 23.1673 28.4989 23.1474L27.2103 23.1266L27.0007 22.6942C26.7674 22.2132 26.4037 21.8553 25.918 21.6288L25.6049 21.4829L25.5853 19.026L25.5656 16.5692L25.3789 16.4062C25.2747 16.3153 25.1072 16.2432 25 16.2432C24.8928 16.2432 24.7253 16.3153 24.6211 16.4062ZM25.6609 22.7934C26.2369 23.2099 26.2761 24.1118 25.738 24.5715C25.2453 24.9924 24.6551 24.9621 24.1921 24.492C23.6767 23.9687 23.815 23.0771 24.4677 22.715C24.7879 22.5373 25.3585 22.5748 25.6609 22.7934ZM13.4884 23.1822C13.0834 23.3326 12.9602 23.8204 13.2526 24.1172C13.4124 24.2795 13.4385 24.283 14.4866 24.283C15.5346 24.283 15.5607 24.2795 15.7206 24.1172C16.0125 23.8208 15.9187 23.3422 15.5427 23.2091C15.3312 23.1343 13.676 23.1126 13.4884 23.1822ZM34.4089 23.2285C34.0672 23.3836 34.0014 23.835 34.2794 24.1172C34.4393 24.2795 34.4654 24.283 35.5134 24.283C36.5615 24.283 36.5876 24.2795 36.7474 24.1172C36.9715 23.8897 36.968 23.5504 36.7393 23.332C36.5758 23.176 36.522 23.1674 35.5914 23.1515C34.8728 23.1392 34.5607 23.1595 34.4089 23.2285ZM17.3048 30.7178C16.4415 31.5659 16.3334 31.8011 16.6405 32.1637C16.7593 32.3039 16.8585 32.3499 17.0419 32.3499C17.2623 32.3499 17.3523 32.2824 17.9844 31.6438C18.3687 31.2555 18.6999 30.8716 18.7202 30.7907C18.8062 30.4482 18.5233 30.0933 18.1641 30.0933C17.9726 30.0933 17.8499 30.1824 17.3048 30.7178ZM31.4678 30.2303C31.3032 30.386 31.2246 30.6331 31.2815 30.8153C31.3027 30.8834 31.6339 31.2565 32.0173 31.6445C32.6481 32.2826 32.7376 32.3499 32.9581 32.3499C33.1415 32.3499 33.2407 32.3039 33.3595 32.1637C33.6666 31.8011 33.5585 31.5659 32.6952 30.7178C32.1501 30.1824 32.0274 30.0933 31.8359 30.0933C31.7036 30.0933 31.5537 30.1491 31.4678 30.2303ZM24.755 33.0297C24.4747 33.1534 24.4019 33.4328 24.4019 34.3835C24.4019 35.346 24.4719 35.6054 24.771 35.7502C24.9833 35.853 25.0167 35.853 25.229 35.7502C25.5281 35.6054 25.5981 35.346 25.5981 34.3835C25.5981 33.4157 25.5268 33.1526 25.2304 33.0268C24.9648 32.9141 25.0174 32.9138 24.755 33.0297ZM14.2614 36.3921L14.7543 36.8129L13.3063 38.2856C11.8555 39.761 11.6695 39.9054 11.3109 39.8358C11.0435 39.7839 10.8268 39.4955 10.8268 39.1916C10.8268 38.9243 10.8647 38.8785 12.2721 37.4441C13.067 36.634 13.7289 35.9712 13.743 35.9712C13.757 35.9712 13.9904 36.1605 14.2614 36.3921ZM37.7279 37.4441C39.1353 38.8785 39.1732 38.9243 39.1732 39.1916C39.1732 39.4955 38.9565 39.7839 38.6891 39.8358C38.3305 39.9054 38.1445 39.761 36.694 38.2858L35.2462 36.8135L35.7292 36.395C35.9948 36.1649 36.228 35.9754 36.2474 35.9739C36.2668 35.9724 36.933 36.634 37.7279 37.4441Z" fill="white"/>
</svg>
