<svg width="49" height="49" viewBox="0 0 49 49" fill="none" xmlns="http://www.w3.org/2000/svg">
<path fill-rule="evenodd" clip-rule="evenodd" d="M16.998 7.06047C16.7424 7.093 16.2688 7.19613 15.9455 7.28972C12.8612 8.18231 10.6207 11.0258 10.4751 14.2326L10.4392 15.0227L9.37972 15.0441L8.32021 15.0655L8.16011 15.2553L8 15.445V28.0249V40.6047L8.19411 40.8023L8.38821 41H25H41.6118L41.8059 40.8023L42 40.6047V28.0249V15.445L41.8398 15.2553L41.6795 15.0655L33.6153 15.0478L25.5511 15.0301L25.5403 14.4252C25.5269 13.671 25.3856 12.8981 25.122 12.1364C24.8713 11.412 24.7455 11.1549 24.3048 10.467C22.7389 8.02224 19.8876 6.69292 16.998 7.06047ZM18.957 8.23269C21.1564 8.57447 23.056 10.0642 23.9028 12.1113C24.2881 13.0428 24.3694 13.4715 24.3668 14.5583C24.3646 15.4945 24.3549 15.5645 24.1528 16.1049C23.4693 17.9317 21.8517 20.1774 19.3564 22.7636L17.9959 24.1736L16.7318 22.8656C13.8803 19.915 12.0926 17.3147 11.6749 15.5099C11.5403 14.9287 11.5893 13.7791 11.7802 13.0368C12.5051 10.218 15.0407 8.19942 17.9277 8.14255C18.1469 8.13822 18.6101 8.1788 18.957 8.23269ZM17.0701 10.2682C15.4765 10.5906 14.055 11.9931 13.6815 13.6116C13.5529 14.1691 13.5511 15.2108 13.6778 15.7582C14.2714 18.322 16.9829 19.8386 19.4297 18.9753C21.0614 18.3996 22.1716 17.0092 22.4089 15.2439C22.6577 13.3936 21.6655 11.507 20.0045 10.6721C19.0294 10.1819 18.1173 10.0564 17.0701 10.2682ZM18.7516 11.4164C20.2641 11.7795 21.3088 13.1389 21.2959 14.7273C21.2696 17.9648 17.2492 19.2871 15.339 16.6863C14.8629 16.0381 14.74 15.621 14.7417 14.6598C14.743 13.952 14.7636 13.8007 14.9033 13.4763C15.5954 11.8685 17.1558 11.0333 18.7516 11.4164ZM10.9197 16.8238C11.5199 18.3187 12.6976 20.0753 14.47 22.1192C15.4696 23.2719 17.6462 25.4309 17.8651 25.4869C18.1647 25.5635 18.4221 25.3631 19.7426 24.0251C22.5017 21.2295 24.2863 18.81 25.1041 16.7562L25.3195 16.2152L28.3298 16.1976L31.3401 16.1799L31.175 16.3412C31.0841 16.4299 26.1538 20.6189 20.2188 25.65C14.2837 30.6811 9.36053 34.8593 9.27832 34.935L9.12891 35.0725L9.12937 32.1359L9.12984 29.1993L9.61082 29.0819C10.6309 28.833 11.6553 28.1105 12.1891 27.2633C13.4883 25.2013 12.5432 22.5242 10.178 21.5669C9.93322 21.4679 9.59707 21.3678 9.43092 21.3447L9.12891 21.3025V18.7398V16.1771L9.90214 16.1961L10.6754 16.2152L10.9197 16.8238ZM37.418 16.2087C37.418 16.2238 37.2082 16.3946 36.9518 16.5881C36.2286 17.1341 36.1284 17.3807 36.4832 17.742C36.8187 18.0836 36.9346 18.038 38.2148 17.0605L39.3663 16.1814H40.1187H40.8711V17.32V18.4586L35.5992 22.9322C32.6997 25.3926 30.309 27.4542 30.2867 27.5134C30.1458 27.8874 30.0466 27.7769 35.5586 33.3917L40.8711 38.8033V39.3268V39.8504H37.9333H34.9955L30.7104 35.4885C26.6145 31.3192 26.4147 31.1266 26.1842 31.1266C25.9624 31.1266 25.5284 31.4786 20.8064 35.4874L15.6699 39.8482L12.3983 39.8493L9.12658 39.8504L9.14438 38.1957L9.16211 36.541L21.1484 26.3642L33.1348 16.1875L35.2764 16.1844C36.4543 16.1827 37.418 16.1937 37.418 16.2087ZM32.5751 20.0671C31.5905 20.9024 30.7534 21.6459 30.7147 21.7194C30.5178 22.0941 30.7811 22.5382 31.2002 22.5382C31.4023 22.5382 31.6479 22.3529 33.2519 20.99C34.2541 20.1385 35.0935 19.3905 35.1171 19.3276C35.263 18.9406 35.0026 18.5483 34.5997 18.5483C34.3914 18.5483 34.1651 18.718 32.5751 20.0671ZM40.8408 24.9555C40.8232 25.0022 40.7497 25.0403 40.6774 25.0403C40.3531 25.0403 39.4513 25.4032 38.9832 25.7221C37.5003 26.7321 36.8703 28.5284 37.4231 30.1703C37.8545 31.4518 39.1062 32.5525 40.4389 32.8222L40.8711 32.9097V35.0443V37.1788L36.2567 32.48L31.6423 27.7813L31.8241 27.6336C31.924 27.5525 33.9931 25.7983 36.4219 23.7356L40.8379 19.9852L40.8554 22.4279C40.8649 23.7715 40.8584 24.9089 40.8408 24.9555ZM10.0297 22.7667C10.624 23.0533 11.1068 23.5382 11.3982 24.1408C11.5999 24.5582 11.6189 24.6508 11.6168 25.208C11.6149 25.6818 11.5802 25.9054 11.4617 26.2092C11.2862 26.6591 10.7173 27.3255 10.2923 27.5791C10.0368 27.7316 9.31604 28.0159 9.18489 28.0159C9.15414 28.0159 9.12891 26.7644 9.12891 25.2347V22.4536L9.34473 22.4971C9.46346 22.5209 9.77165 22.6423 10.0297 22.7667ZM28.1875 23.7371C28.0388 23.7948 24.6921 26.6445 24.5366 26.8459C24.3492 27.0886 24.3685 27.3156 24.5964 27.5477C24.8033 27.7583 24.9856 27.7934 25.2202 27.6676C25.4555 27.5414 28.7813 24.7006 28.8527 24.5648C29.088 24.1171 28.6412 23.5611 28.1875 23.7371ZM40.8047 28.9639V31.7378L40.6221 31.6946C39.9875 31.5443 39.3014 31.091 38.9076 30.5618C37.9782 29.3133 38.2635 27.614 39.5546 26.7096C39.8783 26.4828 40.5202 26.1983 40.7217 26.1924C40.7868 26.1905 40.8047 26.7885 40.8047 28.9639ZM21.7346 29.0802C20.7174 29.9328 17.75 32.5781 17.6964 32.6798C17.5023 33.0492 17.7683 33.4935 18.1835 33.4935C18.3867 33.4935 18.6472 33.2884 20.5348 31.6415C21.9788 30.3817 22.6712 29.7344 22.7 29.6174C22.7872 29.2636 22.4988 28.895 22.1348 28.895C22.0362 28.895 21.8561 28.9783 21.7346 29.0802ZM29.7812 36.1648L33.3999 39.8504H25.4338C18.4456 39.8504 17.4796 39.8383 17.5649 39.7515C17.7269 39.5869 26.0932 32.4856 26.1291 32.4823C26.1475 32.4806 27.791 34.1377 29.7812 36.1648ZM15.4924 34.2877C14.4678 35.1483 11.5764 37.7111 11.4926 37.833C11.3348 38.0624 11.3637 38.2819 11.5808 38.5031C11.7866 38.7126 11.971 38.7489 12.1989 38.6248C12.2755 38.583 13.2598 37.7435 14.386 36.7594C15.7187 35.5949 16.448 34.9125 16.4744 34.8053C16.5243 34.6029 16.3908 34.2551 16.2297 34.1672C16.0114 34.0483 15.7209 34.0957 15.4924 34.2877Z" fill="white"/>
</svg>
