<svg width="281" height="35" viewBox="0 0 281 35" fill="none" xmlns="http://www.w3.org/2000/svg">
<g clip-path="url(#clip0_70_178)">
<path fill-rule="evenodd" clip-rule="evenodd" d="M184.726 18.0305C184.726 11.7984 180.614 8.07656 174.446 8.04883C168.198 8.04883 164.166 12.1536 164.166 17.9751C164.166 24.2349 168.278 27.958 174.446 27.958C180.695 27.958 184.726 23.8482 184.726 18.0305ZM181.109 18.0028C181.109 22.0559 178.557 24.7866 174.474 24.7866V24.7828C170.087 24.7551 167.784 21.7776 167.784 18.0028C167.784 13.9773 170.309 11.2468 174.421 11.219C178.807 11.2468 181.109 14.2242 181.109 18.0028Z" fill="#FF0D65"/>
<path fill-rule="evenodd" clip-rule="evenodd" d="M226.31 18.0305C226.31 11.7984 222.199 8.07656 216.031 8.04883C209.781 8.04883 205.752 12.1536 205.75 17.9751C205.75 24.2349 209.863 27.958 216.031 27.958C222.28 27.958 226.31 23.8482 226.31 18.0305ZM222.694 18.0028C222.694 22.0559 220.142 24.7866 216.058 24.7866L216.059 24.7828C211.673 24.7551 209.37 21.7776 209.369 18.0028C209.369 13.9773 211.893 11.2468 216.005 11.219C220.391 11.2468 222.694 14.2242 222.694 18.0028Z" fill="#FF0D65"/>
<path fill-rule="evenodd" clip-rule="evenodd" d="M229.902 27.6498V8.34766H238.235C242.512 8.34766 244.705 9.94598 244.705 13.1452C244.705 15.3506 243.828 16.8129 241.854 17.585C244.211 17.9981 245.281 19.5146 245.281 22.0235C245.281 26.0225 242.43 27.6498 237.768 27.6498H229.902ZM237.742 16.5093C239.908 16.5093 241.278 15.5446 241.278 13.8895C241.278 12.3454 240.263 11.5179 237.825 11.5179H233.33V16.5093H237.742ZM237.992 24.4783C240.621 24.4783 241.83 23.6231 241.83 21.7754C241.83 19.9277 240.46 19.211 238.047 19.211H233.333V24.4783H237.992Z" fill="#FF0D65"/>
<path fill-rule="evenodd" clip-rule="evenodd" d="M255.204 14.3581H252.599V8.34766H249.174V27.6498H255.236C260.828 27.6498 263.844 25.3877 263.844 20.8937C263.844 16.5371 261.289 14.3581 255.204 14.3581ZM252.599 24.4783V17.5295H255.505C258.85 17.5295 260.302 18.439 260.302 20.8106C260.302 23.4304 258.659 24.4783 255.45 24.4783H252.599Z" fill="#FF0D65"/>
<path d="M270.859 19.2942H279.686L279.69 16.1227H270.863V11.5179H280.704V8.34766H267.432V27.6498H281.001V24.4783H270.859V19.2942Z" fill="#FF0D65"/>
<path fill-rule="evenodd" clip-rule="evenodd" d="M191.74 21.6381V27.6498H188.312V8.34766H194.698C200.756 8.34766 203.338 10.5254 203.338 14.882C203.338 19.3773 200.323 21.6381 194.698 21.6381H191.74ZM191.74 11.5179V18.4666H194.946C198.126 18.4666 199.77 17.4187 199.77 14.8002C199.77 12.4285 198.346 11.5179 195.001 11.5179H191.74Z" fill="#FF0D65"/>
<path fill-rule="evenodd" clip-rule="evenodd" d="M144.73 24.4783C145.826 21.8585 146.621 18.2185 146.704 12.3454L146.758 8.34766H160.245V24.4783H162.465V31.2344H159.259V27.6498H145.853V31.2344H142.646V24.4783H144.73ZM148.075 24.4783H156.818V11.5179H149.884V12.4285C149.774 17.4741 149.167 21.4454 148.075 24.4783Z" fill="#FF0D65"/>
<path d="M132.779 8.07227C129.736 8.07227 127.516 8.98167 126.419 9.78142L126.416 14.579C127.541 12.8697 129.871 11.1884 132.776 11.2425C134.805 11.2979 136.394 12.0145 136.394 13.8068C136.394 15.2414 135.544 16.4267 133.078 16.4267H130.197V19.2669H133.104C136.091 19.2669 137.353 20.0667 137.353 21.7758C137.353 23.7344 135.489 24.7269 133.159 24.7546C129.621 24.7823 127.127 23.2382 125.949 21.2796V25.5267C126.969 26.6842 129.621 27.9538 133.104 27.9261C138.258 27.8984 140.916 25.334 140.916 21.9975C140.916 19.4596 139.494 17.9154 136.534 17.4746C138.755 16.6748 139.933 15.186 139.933 12.9252C139.933 9.53333 137.082 8.10001 132.779 8.07227Z" fill="#FF0D65"/>
<path d="M52.0377 24.1983C53.2836 24.2053 54.5111 23.8975 55.6063 23.3033L56.5225 22.8071L59.1973 24.7782C57.4324 26.6682 54.8313 27.7069 51.8516 27.7069C49.0029 27.7069 46.3993 26.6957 44.537 24.8745C42.6746 23.0533 41.6484 20.5222 41.6484 17.7722C41.6484 15.0223 42.6896 12.5286 44.5483 10.7725C46.4069 9.01632 49.0092 8.04883 51.8777 8.04883C54.5226 8.04883 56.835 8.85257 58.566 10.3738L58.7623 10.54L55.7975 12.7249C54.702 11.9415 53.3844 11.5293 52.0377 11.5487C48.3117 11.5487 45.6069 14.2086 45.6069 17.8735C45.6069 21.5384 48.3117 24.1983 52.0377 24.1983Z" fill="#21A038"/>
<path fill-rule="evenodd" clip-rule="evenodd" d="M71.8624 15.7629H66.8327V11.4855H74.8609L79.1882 8.29688H62.6992V27.4525H71.3237C76.1646 27.4525 78.9406 25.2589 78.9406 21.4352C78.9456 17.7779 76.4296 15.7629 71.8624 15.7629ZM71.1425 24.2626H66.8327V18.9528H71.1425C73.7673 18.9528 74.9871 19.8415 74.9871 21.6078C74.9871 23.4127 73.6885 24.2626 71.1425 24.2626Z" fill="#21A038"/>
<path d="M97.2797 8.29688L92.9525 11.4855H86.9304V16.1692H95.7585V19.3591H86.9304V24.2626H97.2797V27.4525H82.7969V8.29688H97.2797Z" fill="#21A038"/>
<path fill-rule="evenodd" clip-rule="evenodd" d="M101.127 8.29688H109.013C114.044 8.29688 117.167 10.923 117.167 15.1517C117.167 19.3803 114.041 22.0264 109.01 22.0264H105.261V27.4525H101.127V8.29688ZM105.261 18.8365H108.924C111.572 18.8365 113.029 17.5316 113.029 15.1617C113.029 12.7918 111.572 11.4855 108.924 11.4855H105.261V18.8365Z" fill="#21A038"/>
<path d="M28.5723 8.21875C29.3251 9.19522 29.9688 10.2622 30.4836 11.3995L15.951 22.147L9.87891 18.3278V13.7333L15.951 17.5524L28.5723 8.21875Z" fill="#21A038"/>
<path d="M3.68482 18.0023C3.68482 17.7962 3.68984 17.5914 3.69986 17.3878L0.0200403 17.2031C0.0075154 17.4682 0 17.7347 0 18.0023C0 22.421 1.7848 26.4224 4.67179 29.3191L7.28073 26.7014C5.06131 24.4719 3.68482 21.3955 3.68482 18.0023Z" fill="url(#paint0_linear_70_178)"/>
<path d="M15.9505 5.69602C16.156 5.69602 16.3601 5.70356 16.563 5.71361L16.7472 2.02011C16.4828 2.00754 16.2173 2 15.9505 2C11.5468 2 7.55887 3.79083 4.67188 6.68757L7.28082 9.30532C9.50274 7.0759 12.5688 5.69602 15.9505 5.69602Z" fill="url(#paint1_linear_70_178)"/>
<path d="M15.9509 30.3093C15.7455 30.3093 15.5414 30.3043 15.3385 30.2942L15.1543 33.9865C15.4185 33.999 15.6841 34.0066 15.9509 34.0066C20.3546 34.0066 24.3426 32.2157 27.2296 29.319L24.6206 26.7012C22.3987 28.9282 19.3326 30.3093 15.9509 30.3093Z" fill="url(#paint2_linear_70_178)"/>
<path d="M22.8661 7.84375L25.9685 5.55024C23.2306 3.32961 19.7462 2 15.9512 2V5.69728C18.515 5.69602 20.896 6.49027 22.8661 7.84375Z" fill="url(#paint3_linear_70_178)"/>
<path d="M31.9 18.0045C31.9 17.0255 31.8123 16.0679 31.6445 15.1367L28.2113 17.6752C28.2139 17.7846 28.2164 17.8939 28.2164 18.0032C28.2164 21.6163 26.6557 24.8712 24.1758 27.1245L26.652 29.8705C29.8747 26.9435 31.9 22.7109 31.9 18.0045Z" fill="#21A038"/>
<path d="M15.9503 30.3103C12.3494 30.3103 9.10546 28.7444 6.85974 26.2561L4.12305 28.7406C7.04135 31.9754 11.2597 34.0075 15.9503 34.0075V30.3103Z" fill="url(#paint4_linear_70_178)"/>
<path d="M7.72536 8.88266L5.24919 6.13672C2.02528 9.06488 0 13.2976 0 18.004H3.68482C3.68608 14.3897 5.24543 11.136 7.72536 8.88266Z" fill="url(#paint5_linear_70_178)"/>
</g>
<defs>
<linearGradient id="paint0_linear_70_178" x1="5.4181" y1="28.8556" x2="1.36785" y2="17.1876" gradientUnits="userSpaceOnUse">
<stop offset="0.1444" stop-color="#F2E913"/>
<stop offset="0.3037" stop-color="#E7E518"/>
<stop offset="0.5823" stop-color="#CADB26"/>
<stop offset="0.891" stop-color="#A3CD39"/>
</linearGradient>
<linearGradient id="paint1_linear_70_178" x1="5.72498" y1="7.34115" x2="16.1029" y2="3.39966" gradientUnits="userSpaceOnUse">
<stop offset="0.0592" stop-color="#0FA8E0"/>
<stop offset="0.5385" stop-color="#0099F9"/>
<stop offset="0.9234" stop-color="#0291EB"/>
</linearGradient>
<linearGradient id="paint2_linear_70_178" x1="14.9111" y1="31.7752" x2="26.6407" y2="29.1331" gradientUnits="userSpaceOnUse">
<stop offset="0.1226" stop-color="#A3CD39"/>
<stop offset="0.2846" stop-color="#86C339"/>
<stop offset="0.8693" stop-color="#21A038"/>
</linearGradient>
<linearGradient id="paint3_linear_70_178" x1="15.1802" y1="3.23836" x2="25.2113" y2="6.32296" gradientUnits="userSpaceOnUse">
<stop offset="0.0566" stop-color="#0291EB"/>
<stop offset="0.79" stop-color="#0C8ACB"/>
</linearGradient>
<linearGradient id="paint4_linear_70_178" x1="5.04729" y1="28.29" x2="15.9688" y2="32.3569" gradientUnits="userSpaceOnUse">
<stop offset="0.1324" stop-color="#F2E913"/>
<stop offset="0.2977" stop-color="#EBE716"/>
<stop offset="0.5306" stop-color="#D9E01F"/>
<stop offset="0.8023" stop-color="#BBD62D"/>
<stop offset="0.9829" stop-color="#A3CD39"/>
</linearGradient>
<linearGradient id="paint5_linear_70_178" x1="1.37331" y1="18.4518" x2="5.77944" y2="7.02835" gradientUnits="userSpaceOnUse">
<stop offset="0.0698" stop-color="#A3CD39"/>
<stop offset="0.2599" stop-color="#81C55F"/>
<stop offset="0.9216" stop-color="#0FA8E0"/>
</linearGradient>
<clipPath id="clip0_70_178">
<rect width="281" height="35" fill="white"/>
</clipPath>
</defs>
</svg>
