<svg width="281" height="35" viewBox="0 0 281 35" fill="none" xmlns="http://www.w3.org/2000/svg">
<path d="M83.0186 3.93111H107.175C107.737 3.93111 108.194 4.38816 108.194 4.95195V9.7125C108.194 10.3466 107.919 10.947 107.441 11.3625L93.9326 22.6875H107.175C107.737 22.6875 108.194 23.1362 108.194 23.7V29.1652C108.194 29.729 107.737 30.1861 107.175 30.1861H83.0186C82.4561 30.1861 82 29.729 82 29.1652V24.4125C82 23.7784 82.2746 23.178 82.7526 22.7625L96.2609 11.4375H83.0186C82.4561 11.4375 82 10.97 82 10.4062V4.95195C82 4.38816 82.4561 3.93111 83.0186 3.93111ZM125.032 3C127.825 3 130.316 3.62946 132.394 4.77975C134.473 5.93004 136.141 7.60116 137.289 9.68449C138.436 11.7678 139.065 14.2634 139.065 17.0625C139.065 19.8616 138.436 22.3572 137.289 24.4405C136.141 26.5238 134.473 28.195 132.394 29.3453C130.316 30.4955 127.825 31.125 125.032 31.125C122.239 31.125 119.749 30.4955 117.67 29.3453C115.591 28.195 113.924 26.5238 112.776 24.4405C111.628 22.3572 111 19.8616 111 17.0625C111 14.2634 111.628 11.7678 112.776 9.68449C113.924 7.60116 115.591 5.93004 117.67 4.77975C119.749 3.62946 122.239 3 125.032 3ZM125.032 10.5C123.696 10.5 122.523 10.7828 121.553 11.3087C120.583 11.8346 119.816 12.6036 119.291 13.5758C118.766 14.548 118.484 15.7235 118.484 17.0625C118.484 18.4015 118.766 19.577 119.291 20.5492C119.816 21.5214 120.583 22.2904 121.553 22.8163C122.523 23.3422 123.696 23.625 125.032 23.625C126.368 23.625 127.541 23.3422 128.511 22.8163C129.482 22.2904 130.249 21.5214 130.774 20.5492C131.298 19.577 131.581 18.4015 131.581 17.0625C131.581 15.7235 131.298 14.548 130.774 13.5758C130.249 12.6036 129.482 11.8346 128.511 11.3087C127.541 10.7828 126.368 10.5 125.032 10.5ZM154.968 3C157.761 3 160.251 3.62946 162.33 4.77975C164.409 5.93004 166.076 7.60116 167.224 9.68449C168.372 11.7678 169 14.2634 169 17.0625C169 19.8616 168.372 22.3572 167.224 24.4405C166.076 26.5238 164.409 28.195 162.33 29.3453C160.251 30.4955 157.761 31.125 154.968 31.125C152.175 31.125 149.684 30.4955 147.606 29.3453C145.527 28.195 143.859 26.5238 142.711 24.4405C141.564 22.3572 140.935 19.8616 140.935 17.0625C140.935 14.2634 141.564 11.7678 142.711 9.68449C143.859 7.60116 145.527 5.93004 147.606 4.77975C149.684 3.62946 152.175 3 154.968 3ZM154.968 10.5C153.632 10.5 152.459 10.7828 151.489 11.3087C150.518 11.8346 149.751 12.6036 149.226 13.5758C148.702 14.548 148.419 15.7235 148.419 17.0625C148.419 18.4015 148.702 19.577 149.226 20.5492C149.751 21.5214 150.518 22.2904 151.489 22.8163C152.459 23.3422 153.632 23.625 154.968 23.625C156.304 23.625 157.477 23.3422 158.447 22.8163C159.417 22.2904 160.184 21.5214 160.709 20.5492C161.234 19.577 161.516 18.4015 161.516 17.0625C161.516 15.7235 161.234 14.548 160.709 13.5758C160.184 12.6036 159.417 11.8346 158.447 11.3087C157.477 10.7828 156.304 10.5 154.968 10.5ZM198.003 4.9552V29.1648C198.003 29.7287 197.547 30.1857 196.984 30.1857H192.237C191.605 30.1857 191.006 29.9106 190.591 29.4316L179.29 15.8958V29.1648C179.29 29.7287 178.824 30.1857 178.261 30.1857H172.822C172.259 30.1857 171.803 29.7287 171.803 29.1648V4.9552C171.803 4.39137 172.259 3.93431 172.822 3.93431H177.569C178.202 3.93431 178.801 4.20954 179.215 4.68869L190.516 18.2292V4.9552C190.516 4.39137 190.964 3.93431 191.526 3.93431H196.984C197.547 3.93431 198.003 4.39137 198.003 4.9552Z" fill="url(#paint0_linear_100_19)"/>
<defs>
<linearGradient id="paint0_linear_100_19" x1="171.72" y1="17.0625" x2="107.302" y2="17.0625" gradientUnits="userSpaceOnUse">
<stop stop-color="#6339F5"/>
<stop offset="1" stop-color="#3D3F55"/>
</linearGradient>
</defs>
</svg>
