<svg width="281" height="35" viewBox="0 0 281 35" fill="none" xmlns="http://www.w3.org/2000/svg">
<path fill-rule="evenodd" clip-rule="evenodd" d="M61.313 6.85475C58.0216 7.98307 57.07 9.22059 56.9478 13.5155C56.8866 15.8631 56.747 22.8332 57.1224 24.7896C58.2486 30.3766 68.2276 30.5677 73.2389 29.0208C76.4604 28.0199 77.089 26.6004 77.1501 22.4602C77.2112 19.4028 77.1501 16.6639 77.2112 14.3617C77.2112 9.81205 76.2247 7.01854 71.4666 6.46348C68.472 6.0904 63.9671 5.95391 61.3043 6.85475H61.313ZM73.2912 23.4156V13.1515C73.3698 10.267 69.249 10.6401 67.1799 10.6401C64.91 10.6401 60.9463 10.3944 60.9463 13.1515V23.4156C60.9463 24.8533 62.6924 25.3902 64.6742 25.5357C66.4917 25.6017 68.3113 25.547 70.1221 25.372C71.9729 25.2264 73.1777 24.6896 73.2563 23.3974L73.2912 23.4156Z" fill="#EC2327"/>
<path fill-rule="evenodd" clip-rule="evenodd" d="M36.4635 6.2697C41.2828 6.2697 46.7013 5.92657 49.6792 6.55719C52.6572 7.18781 54.2167 9.1353 54.2167 13.0488C54.2167 19.5405 52.2431 21.3952 47.8643 21.8682C47.7382 21.8783 47.6115 21.8783 47.4854 21.8682C44.8951 22.1001 41.4767 21.8682 37.1507 21.8682V27.6829C37.1507 28.2584 36.9335 28.8104 36.5469 29.2174C36.1602 29.6244 35.6358 29.853 35.0891 29.853C34.5423 29.853 34.0179 29.6244 33.6312 29.2174C33.2446 28.8104 33.0274 28.2584 33.0274 27.6829V23.9734C32.9481 21.2469 33.0274 18.0196 33.0274 15.3209C33.0274 13.123 33.1067 10.7675 33.0274 8.5696C32.9912 8.31624 33.0028 8.05785 33.0616 7.80922C33.1204 7.5606 33.2253 7.32664 33.3702 7.12074C33.515 6.91485 33.6971 6.74106 33.9058 6.60934C34.1146 6.47763 34.3461 6.39057 34.5869 6.35316C35.2053 6.25984 35.831 6.23188 36.4547 6.2697H36.4635ZM47.5735 10.6469H37.1595V17.5837H46.3224C48.9656 17.5837 50.3224 17.3982 50.4369 14.2266C50.5515 11.055 49.6616 10.7119 47.5735 10.6469Z" fill="#EC2327"/>
<path d="M30.3399 27.6722V18.5451V14.4906C30.3573 9.86884 29.3303 7.03257 24.5695 6.46531C21.5843 6.10264 17.0585 5.93525 14.3865 6.86518C11.114 7.99968 10.1567 9.25509 10.0348 13.6257C10.0348 15.3089 9.95648 19.3262 10.0348 22.2461V27.649C10.036 27.9348 10.0898 28.2176 10.1932 28.4811C10.2966 28.7446 10.4475 28.9839 10.6375 29.185C10.8274 29.3863 11.0525 29.5455 11.3001 29.6537C11.5476 29.7619 11.8127 29.817 12.0801 29.8157C12.6196 29.8158 13.1372 29.5881 13.5203 29.1823C13.9033 28.7764 14.1208 28.2254 14.1254 27.649V18.8799V18.7125V13.2538C14.1254 10.4547 18.1029 10.7058 20.3832 10.7058C22.4111 10.7058 26.4234 10.3338 26.345 13.2538V26.1053V27.6863C26.3462 27.972 26.4 28.2547 26.5034 28.5182C26.6068 28.7818 26.7578 29.021 26.9477 29.2222C27.1376 29.4234 27.3628 29.5827 27.6103 29.6909C27.8578 29.7991 28.1229 29.8542 28.3904 29.853C28.9282 29.853 29.444 29.6247 29.8243 29.2184C30.2046 28.812 30.3399 28.2469 30.3399 27.6722Z" fill="#EC2327"/>
<path fill-rule="evenodd" clip-rule="evenodd" d="M79.8652 27.6803C79.8675 27.0998 80.0856 26.5438 80.4721 26.1334C80.8585 25.723 81.382 25.4914 81.9286 25.4889H83.2983L92.228 7.36134C92.421 6.97226 92.7185 6.65286 93.0828 6.44367C93.447 6.23449 93.8616 6.14494 94.2738 6.1864C94.6823 6.14691 95.0926 6.2376 95.4523 6.44687C95.812 6.65614 96.1048 6.97451 96.2933 7.36134L105.223 25.4889H106.101C106.648 25.4914 107.171 25.723 107.558 26.1334C107.944 26.5438 108.162 27.0998 108.165 27.6803C108.163 27.9668 108.109 28.2503 108.005 28.5145C107.9 28.7789 107.748 29.0187 107.557 29.2205C107.365 29.4222 107.138 29.5819 106.888 29.6904C106.638 29.7989 106.371 29.8542 106.101 29.853H81.9286C81.6587 29.8542 81.3913 29.7989 81.1416 29.6904C80.8919 29.5819 80.6648 29.4222 80.4731 29.2205C80.2815 29.0187 80.1292 28.7789 80.0249 28.5145C79.9206 28.2503 79.8663 27.9668 79.8652 27.6803ZM94.2738 12.6579L87.9432 25.4889H100.578L94.2738 12.6579Z" fill="#117DC1"/>
<path fill-rule="evenodd" clip-rule="evenodd" d="M136.085 6.25912C136.382 6.26034 136.677 6.31763 136.951 6.42774C137.226 6.53785 137.475 6.69861 137.684 6.90084C137.894 7.10307 138.06 7.34283 138.173 7.6064C138.285 7.86997 138.343 8.15221 138.341 8.43699V14.8316L150.555 6.57422C151.048 6.24453 151.656 6.11232 152.25 6.20582C152.843 6.29932 153.375 6.61112 153.732 7.07467C153.904 7.30877 154.027 7.57323 154.093 7.85286C154.159 8.13249 154.166 8.4218 154.115 8.70421C154.064 8.98662 153.955 9.25655 153.794 9.49855C153.634 9.74054 153.425 9.94983 153.18 10.1144L141.557 18.0103L153.18 25.9063C153.673 26.2403 154.008 26.7476 154.111 27.3171C154.215 27.8868 154.078 28.4724 153.732 28.9461C153.376 29.4105 152.846 29.7245 152.253 29.8214C151.66 29.9182 151.051 29.7904 150.555 29.465L138.341 21.1984V27.6857C138.341 27.9688 138.283 28.2492 138.169 28.5106C138.056 28.772 137.889 29.0095 137.68 29.2093C137.47 29.409 137.221 29.5672 136.948 29.6747C136.674 29.7823 136.381 29.8369 136.085 29.8357C135.486 29.8358 134.911 29.6101 134.485 29.2076C134.059 28.8053 133.816 28.2584 133.809 27.6857V8.43699C133.814 7.86089 134.055 7.30974 134.481 6.90236C134.907 6.49497 135.483 6.26397 136.085 6.25912Z" fill="#117DC1"/>
<path fill-rule="evenodd" clip-rule="evenodd" d="M169.168 10.5389V27.6904C169.163 28.2641 168.931 28.8127 168.522 29.2174C168.113 29.6222 167.56 29.8505 166.982 29.853C166.696 29.8542 166.411 29.7991 166.146 29.6911C165.881 29.5829 165.64 29.4238 165.437 29.2229C165.234 29.0219 165.073 28.7831 164.963 28.5201C164.853 28.2572 164.796 27.9751 164.796 27.6904V10.5389H159.008C158.426 10.539 157.868 10.3107 157.455 9.90396C157.042 9.49718 156.808 8.94478 156.803 8.36705C156.808 7.78759 157.041 7.23325 157.454 6.82349C157.866 6.41374 158.424 6.18138 159.008 6.17651H174.957C175.245 6.17774 175.53 6.23536 175.796 6.34611C176.062 6.45686 176.303 6.61855 176.506 6.82196C176.709 7.02537 176.87 7.26652 176.979 7.53162C177.089 7.79673 177.144 8.08061 177.143 8.36705C177.143 8.94308 176.913 9.4955 176.503 9.90281C176.093 10.3101 175.537 10.5389 174.957 10.5389H169.168Z" fill="#117DC1"/>
<path fill-rule="evenodd" clip-rule="evenodd" d="M254.067 15.6843H262.395C265.336 15.6843 266.452 15.7866 266.452 13.2004C266.452 11.3397 265.779 10.549 262.395 10.549H254.067V15.6843ZM254.067 25.4991H264.569C266.086 25.1642 266.452 24.3827 266.452 23.0151C266.452 20.4289 265.336 20.5405 262.395 20.5405H254.067V25.5177V25.4991ZM264.765 29.853C260.409 29.853 256.019 29.853 251.663 29.853C251.136 29.8555 250.629 29.6297 250.253 29.2252C249.878 28.8207 249.665 28.2704 249.66 27.6946V8.36275C249.662 7.78528 249.873 7.23201 250.246 6.82281C250.62 6.4136 251.126 6.1814 251.655 6.17651C255.354 6.17651 259.224 6.17651 262.864 6.17651C266.504 6.17651 269.99 7.71153 269.99 12.3352C270.048 13.8447 269.861 15.3534 269.436 16.7914C269.346 17.0409 269.234 17.2808 269.103 17.5078C269.002 17.7152 268.957 17.9503 268.976 18.1847C268.994 18.4192 269.074 18.6428 269.206 18.8288C269.315 19.0674 269.412 19.3128 269.495 19.5637C269.872 20.9483 270.039 22.3906 269.99 23.8338C269.961 25.3656 269.408 26.8301 268.439 27.939C267.471 29.0479 266.157 29.7208 264.756 29.8251L264.765 29.853Z" fill="#117DC1"/>
<path fill-rule="evenodd" clip-rule="evenodd" d="M115.258 6.85475C111.967 7.98307 111.015 9.22059 110.893 13.5155C110.832 15.8631 110.692 22.8332 111.068 24.7896C112.194 30.3766 122.182 30.5677 127.193 29.0208C130.406 28.0199 131.034 26.6004 131.095 22.4602C131.157 19.4028 131.095 16.6639 131.157 14.3617C131.157 9.81205 130.17 7.01854 125.412 6.46348C122.417 6.0904 117.912 5.95391 115.25 6.85475H115.258ZM127.237 23.4156V13.1515C127.315 10.267 123.194 10.6401 121.125 10.6401C118.855 10.6401 114.892 10.3944 114.892 13.1515V23.4156C114.892 24.8533 116.638 25.3902 118.62 25.5357C120.437 25.6013 122.257 25.5466 124.067 25.372C125.918 25.2264 127.123 24.6896 127.202 23.3974L127.237 23.4156Z" fill="#117DC1"/>
<path fill-rule="evenodd" clip-rule="evenodd" d="M184.24 6.85475C180.959 7.98307 179.988 9.22059 179.866 13.5155C179.805 15.8631 179.673 22.8332 180.067 24.7896C181.169 30.3766 191.194 30.5677 196.197 29.0208C199.416 28.0199 200.055 26.6004 200.134 22.4602C200.134 19.4028 200.134 16.6639 200.134 14.3617C200.177 9.81205 199.145 7.01854 194.387 6.46348C191.395 6.0904 186.89 5.95391 184.205 6.85475H184.24ZM196.224 23.4156V13.1515C196.302 10.267 192.165 10.6401 190.1 10.6401C187.835 10.6401 183.855 10.3944 183.855 13.1515V23.4156C183.855 24.8533 185.604 25.3902 187.616 25.5357C189.428 25.6014 191.243 25.5467 193.048 25.372C194.912 25.2264 196.11 24.6896 196.197 23.3974L196.224 23.4156Z" fill="#117DC1"/>
<path fill-rule="evenodd" clip-rule="evenodd" d="M231.104 6.85475C227.803 7.98307 226.859 9.22059 226.737 13.5155C226.685 15.8631 226.545 22.8332 226.921 24.7896C228.047 30.3766 238.03 30.5677 243.043 29.0208C246.266 28.0199 246.895 26.6004 246.956 22.4602C247.008 19.4028 246.956 16.6639 247.008 14.3617C247.008 9.81205 246.021 7.01854 241.27 6.46348C238.266 6.0904 233.768 5.95391 231.104 6.85475ZM243.122 23.4156V13.1515C243.2 10.267 239.069 10.6401 237.008 10.6401C234.737 10.6401 230.763 10.3944 230.763 13.1515V23.4156C230.763 24.8533 232.51 25.3902 234.501 25.5357C236.317 25.6017 238.134 25.5471 239.943 25.372C241.803 25.2264 243.008 24.6896 243.087 23.3974L243.122 23.4156Z" fill="#117DC1"/>
<path fill-rule="evenodd" clip-rule="evenodd" d="M206.533 6.24632C211.364 6.24632 216.48 5.94937 219.454 6.58037C222.429 7.21136 224.014 9.16003 224.014 13.0759C224.014 19.5714 222.042 21.4274 217.668 21.9098C217.542 21.9194 217.415 21.9194 217.289 21.9098C214.649 22.1419 211.26 21.9563 206.965 21.9563V27.6816C206.965 28.2575 206.748 28.8098 206.362 29.217C205.976 29.6242 205.452 29.853 204.906 29.853C204.36 29.853 203.836 29.6242 203.45 29.217C203.063 28.8098 202.846 28.2575 202.846 27.6816V23.9699C202.75 21.2417 202.794 18.0125 202.846 15.303C202.846 13.1038 202.908 10.7561 202.846 8.55687C202.773 8.04379 202.896 7.52106 203.188 7.10349C203.48 6.68592 203.918 6.40766 204.404 6.32983C205.016 6.24145 205.635 6.21348 206.252 6.2463L206.533 6.24632ZM217.307 10.6633H206.957V17.6042H216.092C218.733 17.6042 220.106 17.4186 220.229 14.2544C220.352 11.0901 219.446 10.7282 217.298 10.6633H217.307Z" fill="#117DC1"/>
</svg>
