<svg width="281" height="35" viewBox="0 0 281 35" fill="none" xmlns="http://www.w3.org/2000/svg">
<path fill-rule="evenodd" clip-rule="evenodd" d="M116.91 26.8418C124.374 26.8418 130.385 20.8049 130.385 13.4209C130.385 5.98701 124.324 0 116.91 0C109.497 0 103.436 5.98701 103.436 13.371C103.436 20.8049 109.447 26.8418 116.91 26.8418ZM116.91 20.7051C120.968 20.7051 124.224 17.4122 124.224 13.4209C124.224 9.37965 120.918 6.13668 116.91 6.13668C112.853 6.13668 109.597 9.42954 109.597 13.4209C109.597 17.4122 112.853 20.7051 116.91 20.7051Z" fill="#13A546"/>
<path fill-rule="evenodd" clip-rule="evenodd" d="M123.422 26.4432L129.483 33.4779C130.585 34.7751 132.539 34.9248 133.841 33.8272C135.144 32.7296 135.294 30.7838 134.192 29.4866L128.281 22.6016C126.978 24.1981 125.325 25.4953 123.422 26.4432Z" fill="#13A546"/>
<path d="M157.232 22.3733C157.232 23.2713 156.932 24.0197 156.381 24.5685C155.78 25.1672 155.078 25.4167 154.227 25.4167C153.275 25.4167 152.473 25.0674 151.872 24.3689L145.01 16.1867L142.032 18.8642V22.3212C142.032 23.1694 141.804 23.87 141.203 24.4687C140.601 25.0674 139.85 25.3668 139.049 25.3668C138.247 25.3668 137.496 25.0674 136.895 24.4687C136.293 23.87 136.043 23.1216 136.043 22.3234V4.66165C136.043 3.81349 136.344 3.11501 136.895 2.51631C137.496 1.91761 138.247 1.61826 139.099 1.61826C139.95 1.61826 140.652 1.91761 141.203 2.51631C141.804 3.11501 142.023 3.86338 142.023 4.66165V12.1455L151.772 2.36663C152.323 1.81782 152.974 1.56836 153.776 1.56836C154.577 1.56836 155.279 1.86772 155.78 2.41652C156.331 2.96533 156.581 3.61393 156.581 4.41219C156.581 5.21046 156.331 5.90895 155.78 6.40786L149.468 12.5945L156.631 20.5273C157.032 20.9264 157.232 21.575 157.232 22.3733Z" fill="#2C2B67"/>
<path d="M168.878 22.4556V7.33841H164.721C163.969 7.33841 163.318 7.08895 162.767 6.59004C162.266 6.09112 162.016 5.44253 162.016 4.69415C162.016 3.94577 162.266 3.34707 162.767 2.79826C163.318 2.24946 163.969 2 164.721 2H179.247C179.999 2 180.6 2.24946 181.151 2.79826C181.702 3.29718 181.952 3.94577 181.952 4.69415C181.952 5.39263 181.702 6.04123 181.151 6.59004C180.65 7.08895 179.999 7.33841 179.247 7.33841H175.04V22.5055C175.04 23.3536 174.739 24.0521 174.138 24.6508C173.537 25.2495 172.785 25.5489 171.984 25.5489C171.133 25.5489 170.431 25.2495 169.83 24.6508C169.229 24.0521 168.878 23.3037 168.878 22.4556Z" fill="#2C2B67"/>
<path d="M189.195 29.137L189.495 29.0871C191.098 29.0372 192.15 28.4884 192.701 27.3908L193.553 25.3951L185.538 5.638C185.388 5.38854 185.338 4.98941 185.338 4.54039C185.338 3.69223 185.638 2.99373 186.189 2.44492C186.79 1.84622 187.492 1.54688 188.293 1.54688C189.746 1.54688 190.698 2.19546 191.098 3.44276L196.709 18.2606L202.269 3.44276C202.77 2.19546 203.722 1.54688 205.124 1.54688C205.976 1.54688 206.727 1.84622 207.278 2.44492C207.879 3.04362 208.13 3.74212 208.13 4.54039C208.13 4.88963 208.03 5.28876 207.879 5.68789L198.412 28.8875C196.959 32.5795 194.154 34.4754 189.946 34.5253C189.596 34.5253 189.345 34.5253 189.295 34.4754C188.493 34.4255 187.842 34.176 187.291 33.6771C186.74 33.1782 186.54 32.5296 186.54 31.7313C186.54 30.983 186.79 30.3843 187.291 29.8853C187.892 29.4363 188.493 29.1869 189.195 29.137Z" fill="#2C2B67"/>
<path d="M99.6994 22.9503V28.5381C99.6994 29.2865 99.449 29.8852 98.948 30.434C98.4471 30.9828 97.7959 31.1824 97.0445 31.1824C96.2931 31.1824 95.6419 30.9329 95.0909 30.434C94.59 29.9351 94.3395 29.2865 94.3395 28.5381V25.0079H78.3599V28.5381C78.3599 29.2865 78.1095 29.8852 77.6085 30.434C77.1076 30.9828 76.4564 31.1824 75.705 31.1824C74.9536 31.1824 74.3024 30.9329 73.7514 30.434C73.2505 29.9351 73 29.2865 73 28.5381V23.8483C73 21.5533 73.7514 20.2561 75.2041 19.857C76.5065 17.4622 77.4583 13.3212 78.0093 7.43395L78.2096 5.18882C78.3098 4.14109 78.6605 3.34282 79.3117 2.79401C79.9629 2.19531 80.7666 1.99414 81.7685 1.99414L93.4404 1.99417C94.5925 1.99417 95.4916 2.19531 96.0927 2.84391C96.7439 3.44261 97.0445 4.34066 97.0445 5.48817V19.8071C98.8478 19.9568 99.6994 21.0045 99.6994 22.9503ZM91.0276 19.9963V6.99929H83.4628L83.3191 9.23005C83.0185 14.2192 82.1509 18.0006 80.8987 19.9963H91.0276Z" fill="#2C2B67"/>
</svg>
